<?xml version="1.0" encoding="UTF-8" standalone="no"?>
<!DOCTYPE svg PUBLIC "-//W3C//DTD SVG 1.1//EN" "http://www.w3.org/Graphics/SVG/1.1/DTD/svg11.dtd">
<svg width="100%" height="100%" viewBox="0 0 406 538" version="1.1" xmlns="http://www.w3.org/2000/svg" xmlns:xlink="http://www.w3.org/1999/xlink" xml:space="preserve" xmlns:serif="http://www.serif.com/" style="fill-rule:evenodd;clip-rule:evenodd;stroke-linejoin:round;stroke-miterlimit:2;">
    <g transform="matrix(307.4,-368.631,338.916,236.729,177.426,343.069)">
        <path d="M-0.276,-0.26C-0.402,-0.081 -0.418,0.171 -0.304,0.349C-0.266,0.408 -0.217,0.454 -0.162,0.483C-0.112,0.332 -0.066,0.186 -0.014,0.036L-0.066,0.032L-0.159,0.116L-0.219,0.023L0.302,-0.45C0.088,-0.446 -0.124,-0.466 -0.276,-0.26Z" style="fill:url(#_Radial1);fill-rule:nonzero;"/>
    </g>
    <g transform="matrix(-445.01,245.668,-232.99,-432.906,140.024,268.58)">
        <path d="M-0.245,0.349L-0.004,-0.113L-0.166,-0.055L-0.271,-0.115L-0.088,-0.173L-0.125,-0.585C-0.238,-0.563 -0.34,-0.49 -0.399,-0.378C-0.504,-0.178 -0.355,0.076 -0.358,0.417C-0.32,0.391 -0.282,0.369 -0.245,0.349Z" style="fill:url(#_Radial2);fill-rule:nonzero;"/>
    </g>
    <defs>
        <radialGradient id="_Radial1" cx="0" cy="0" r="1" gradientUnits="userSpaceOnUse" gradientTransform="matrix(0.5,0,0,-0.5,0,0.016835)"><stop offset="0" style="stop-color:rgb(138,198,63);stop-opacity:1"/><stop offset="1" style="stop-color:rgb(62,94,44);stop-opacity:1"/></radialGradient>
        <radialGradient id="_Radial2" cx="0" cy="0" r="1" gradientUnits="userSpaceOnUse" gradientTransform="matrix(0.5,-2.77556e-17,0,-0.5,0,-0.167445)"><stop offset="0" style="stop-color:rgb(15,185,197);stop-opacity:1"/><stop offset="1" style="stop-color:rgb(7,86,101);stop-opacity:1"/></radialGradient>
    </defs>
</svg>
